<?xml version="1.0" standalone="no"?>
<!DOCTYPE svg PUBLIC "-//W3C//DTD SVG 20010904//EN"
 "http://www.w3.org/TR/2001/REC-SVG-20010904/DTD/svg10.dtd">
<svg version="1.0" xmlns="http://www.w3.org/2000/svg"
 width="300.000000pt" height="262.000000pt" viewBox="0 0 300.000000 262.000000"
 preserveAspectRatio="xMidYMid meet">
<metadata>
Created by potrace 1.10, written by Peter Selinger 2001-2011
</metadata>
<g transform="translate(0.000000,262.000000) scale(0.100000,-0.100000)"
fill="#000000" stroke="none">
<path d="M1582 2398 c-5 -7 -48 -76 -94 -153 -47 -77 -131 -214 -186 -305 -56
-91 -123 -200 -149 -243 -27 -43 -57 -93 -68 -110 -11 -18 -33 -54 -50 -81
-16 -26 -157 -249 -311 -495 l-282 -446 121 -3 c88 -2 124 1 132 10 7 7 88
135 180 283 158 254 295 472 357 568 15 23 31 49 35 57 8 17 74 123 138 220
23 36 55 86 71 112 69 112 123 196 172 272 29 44 55 91 58 103 4 14 -8 47 -37
100 -23 43 -47 88 -53 100 -13 26 -19 28 -34 11z m58 -128 c17 -33 30 -66 30
-73 0 -8 -33 -66 -74 -129 -40 -64 -104 -165 -142 -226 -38 -61 -97 -155 -131
-209 -35 -54 -70 -111 -79 -127 -9 -16 -58 -93 -108 -170 -82 -126 -214 -337
-241 -384 -72 -128 -214 -341 -235 -352 -30 -16 -130 -13 -136 5 -5 13 38 101
56 115 3 3 22 31 41 63 63 108 50 87 210 334 42 65 137 217 212 338 74 121
205 335 292 475 87 140 174 282 193 315 42 73 62 96 74 89 4 -3 22 -32 38 -64z"/>
<path d="M1756 2042 c-9 -17 -36 -60 -61 -95 -25 -36 -45 -68 -45 -71 0 -3
-15 -28 -33 -54 -32 -45 -54 -81 -140 -222 -22 -36 -43 -67 -46 -70 -7 -5 -38
-53 -56 -85 -10 -18 -49 -80 -110 -175 -12 -19 -69 -107 -125 -195 -208 -322
-233 -361 -281 -433 -27 -40 -49 -75 -49 -77 0 -3 47 -5 105 -5 l105 0 118
181 c239 369 374 579 387 600 6 10 26 42 46 71 42 62 159 242 247 378 l61 96
-40 79 c-55 109 -63 116 -83 77z m54 -92 c11 -22 20 -48 20 -60 0 -11 -26 -60
-57 -108 -62 -95 -134 -205 -265 -407 -126 -193 -204 -314 -304 -470 -49 -77
-92 -141 -96 -143 -5 -2 -8 -8 -8 -14 0 -11 -88 -139 -102 -149 -5 -3 -31 -7
-59 -8 -43 -1 -49 1 -49 19 0 24 127 227 167 268 7 7 13 17 13 21 0 5 42 71
93 149 50 77 108 167 128 199 38 60 278 440 334 528 18 28 58 90 89 138 31 48
61 85 66 82 6 -4 19 -24 30 -45z"/>
<path d="M1920 1762 c0 -7 -125 -209 -147 -238 -4 -5 -14 -20 -20 -32 -7 -12
-19 -32 -25 -44 -7 -12 -16 -27 -20 -32 -26 -36 -83 -127 -102 -161 -39 -70
-80 -136 -103 -163 -13 -15 -23 -30 -23 -34 0 -8 -127 -212 -241 -388 l-68
-105 81 -3 c68 -2 84 0 98 15 9 10 79 117 155 238 76 121 166 261 198 310 33
50 70 106 82 125 12 19 70 111 129 204 l107 169 -32 61 c-17 34 -36 67 -42 74
-11 14 -27 16 -27 4z m29 -76 c7 -8 14 -29 17 -48 5 -35 17 -15 -264 -453 -49
-77 -111 -174 -137 -215 -27 -41 -71 -111 -100 -155 -28 -44 -67 -105 -85
-135 -43 -71 -63 -90 -93 -90 -53 0 -47 20 40 155 46 72 147 233 226 359 78
125 172 276 209 335 36 58 88 141 114 184 26 42 51 77 55 77 3 0 12 -6 18 -14z"/>
<path d="M2037 1378 c-37 -62 -184 -293 -326 -513 l-259 -400 -545 -3 -545 -2
-68 -88 c-37 -48 -92 -115 -122 -150 -30 -35 -53 -64 -51 -65 2 -1 340 0 751
3 l747 5 87 135 c83 127 357 557 379 596 9 14 26 -10 105 -147 52 -90 149
-256 217 -368 67 -112 124 -207 125 -212 3 -6 358 -18 358 -11 0 1 -33 57 -74
125 -40 67 -166 280 -279 472 -233 397 -413 704 -424 723 -5 8 -31 -26 -76
-100z m203 -175 c68 -115 152 -257 187 -318 35 -60 68 -117 73 -125 8 -13 100
-170 273 -465 26 -44 47 -85 47 -92 0 -20 -253 -18 -270 2 -6 8 -44 69 -84
137 -89 151 -93 159 -133 222 -18 28 -33 54 -33 57 0 4 -22 43 -49 86 -26 43
-57 96 -69 118 -27 54 -67 95 -92 95 -20 0 -39 -26 -258 -365 -25 -38 -79
-122 -120 -185 -41 -63 -84 -130 -96 -148 l-21 -32 -681 1 c-374 0 -686 4
-692 8 -11 7 80 137 141 204 l26 27 530 0 529 0 29 28 c23 24 182 265 299 454
16 27 32 48 37 48 4 0 7 5 7 11 0 9 111 185 171 271 11 15 19 30 19 34 0 4 11
21 24 38 12 17 31 46 40 64 9 17 23 32 30 32 8 0 69 -93 136 -207z"/>
<path d="M1950 511 l0 -58 55 0 55 0 0 58 0 59 -55 0 -55 0 0 -59z"/>
<path d="M2110 510 l0 -60 55 0 55 0 0 60 0 60 -55 0 -55 0 0 -60z"/>
<path d="M1950 355 l0 -55 55 0 55 0 0 55 0 55 -55 0 -55 0 0 -55z m80 1 c0
-15 -24 -28 -34 -19 -13 14 -5 33 14 33 11 0 20 -6 20 -14z"/>
<path d="M2110 355 l0 -55 55 0 55 0 0 55 0 55 -55 0 -55 0 0 -55z m73 0 c-4
-15 -36 -12 -41 3 -3 9 3 13 19 10 13 -1 23 -7 22 -13z"/>
</g>
</svg>
